<svg xmlns="http://www.w3.org/2000/svg" viewBox="0 0 512 512" width="100%" height="100%">
  <defs>
    <filter id="shadow" x="-20%" y="-20%" width="140%" height="140%">
      <feDropShadow dx="0" dy="8" stdDeviation="10" flood-color="#000" flood-opacity="0.15"/>
    </filter>
    <clipPath id="squircle">
      <rect width="508" height="508" x="2" y="2" rx="115" ry="115"/>
    </clipPath>
  </defs>
  <g clip-path="url(#squircle)">
    <rect width="512" height="512" fill="#f6f8fa"/>
    <g fill="#ebedf0">
      <rect x="9" y="9" width="22" height="22" rx="4"/>
      <rect x="35" y="9" width="22" height="22" rx="4"/>
      <rect x="61" y="9" width="22" height="22" rx="4"/>
      <rect x="87" y="9" width="22" height="22" rx="4"/>
      <rect x="113" y="9" width="22" height="22" rx="4"/>
      <rect x="139" y="9" width="22" height="22" rx="4"/>
      <rect x="165" y="9" width="22" height="22" rx="4"/>
      <rect x="191" y="9" width="22" height="22" rx="4"/>
      <rect x="217" y="9" width="22" height="22" rx="4"/>
      <rect x="243" y="9" width="22" height="22" rx="4"/>
      <rect x="269" y="9" width="22" height="22" rx="4"/>
      <rect x="295" y="9" width="22" height="22" rx="4"/>
      <rect x="321" y="9" width="22" height="22" rx="4"/>
      <rect x="347" y="9" width="22" height="22" rx="4"/>
      <rect x="373" y="9" width="22" height="22" rx="4"/>
      <rect x="399" y="9" width="22" height="22" rx="4"/>
      <rect x="425" y="9" width="22" height="22" rx="4"/>
      <rect x="451" y="9" width="22" height="22" rx="4"/>
      <rect x="477" y="9" width="22" height="22" rx="4"/>
      <rect x="9" y="35" width="22" height="22" rx="4"/>
      <rect x="35" y="35" width="22" height="22" rx="4"/>
      <rect x="61" y="35" width="22" height="22" rx="4"/>
      <rect x="87" y="35" width="22" height="22" rx="4"/>
      <rect x="113" y="35" width="22" height="22" rx="4"/>
      <rect x="139" y="35" width="22" height="22" rx="4"/>
      <rect x="165" y="35" width="22" height="22" rx="4"/>
      <rect x="191" y="35" width="22" height="22" rx="4"/>
      <rect x="217" y="35" width="22" height="22" rx="4"/>
      <rect x="243" y="35" width="22" height="22" rx="4"/>
      <rect x="269" y="35" width="22" height="22" rx="4"/>
      <rect x="295" y="35" width="22" height="22" rx="4"/>
      <rect x="321" y="35" width="22" height="22" rx="4"/>
      <rect x="347" y="35" width="22" height="22" rx="4"/>
      <rect x="373" y="35" width="22" height="22" rx="4"/>
      <rect x="399" y="35" width="22" height="22" rx="4"/>
      <rect x="425" y="35" width="22" height="22" rx="4"/>
      <rect x="451" y="35" width="22" height="22" rx="4"/>
      <rect x="477" y="35" width="22" height="22" rx="4"/>
      <rect x="9" y="61" width="22" height="22" rx="4"/>
      <rect x="35" y="61" width="22" height="22" rx="4"/>
      <rect x="61" y="61" width="22" height="22" rx="4"/>
      <rect x="87" y="61" width="22" height="22" rx="4"/>
      <rect x="113" y="61" width="22" height="22" rx="4"/>
      <rect x="139" y="61" width="22" height="22" rx="4"/>
      <rect x="165" y="61" width="22" height="22" rx="4"/>
      <rect x="191" y="61" width="22" height="22" rx="4"/>
      <rect x="217" y="61" width="22" height="22" rx="4"/>
      <rect x="269" y="61" width="22" height="22" rx="4"/>
      <rect x="295" y="61" width="22" height="22" rx="4"/>
      <rect x="321" y="61" width="22" height="22" rx="4"/>
      <rect x="347" y="61" width="22" height="22" rx="4"/>
      <rect x="373" y="61" width="22" height="22" rx="4"/>
      <rect x="399" y="61" width="22" height="22" rx="4"/>
      <rect x="425" y="61" width="22" height="22" rx="4"/>
      <rect x="451" y="61" width="22" height="22" rx="4"/>
      <rect x="477" y="61" width="22" height="22" rx="4"/>
      <rect x="9" y="87" width="22" height="22" rx="4"/>
      <rect x="35" y="87" width="22" height="22" rx="4"/>
      <rect x="61" y="87" width="22" height="22" rx="4"/>
      <rect x="87" y="87" width="22" height="22" rx="4"/>
      <rect x="113" y="87" width="22" height="22" rx="4"/>
      <rect x="139" y="87" width="22" height="22" rx="4"/>
      <rect x="165" y="87" width="22" height="22" rx="4"/>
      <rect x="191" y="87" width="22" height="22" rx="4"/>
      <rect x="217" y="87" width="22" height="22" rx="4"/>
      <rect x="269" y="87" width="22" height="22" rx="4"/>
      <rect x="295" y="87" width="22" height="22" rx="4"/>
      <rect x="321" y="87" width="22" height="22" rx="4"/>
      <rect x="347" y="87" width="22" height="22" rx="4"/>
      <rect x="373" y="87" width="22" height="22" rx="4"/>
      <rect x="399" y="87" width="22" height="22" rx="4"/>
      <rect x="425" y="87" width="22" height="22" rx="4"/>
      <rect x="451" y="87" width="22" height="22" rx="4"/>
      <rect x="477" y="87" width="22" height="22" rx="4"/>
      <rect x="9" y="113" width="22" height="22" rx="4"/>
      <rect x="35" y="113" width="22" height="22" rx="4"/>
      <rect x="61" y="113" width="22" height="22" rx="4"/>
      <rect x="87" y="113" width="22" height="22" rx="4"/>
      <rect x="113" y="113" width="22" height="22" rx="4"/>
      <rect x="139" y="113" width="22" height="22" rx="4"/>
      <rect x="165" y="113" width="22" height="22" rx="4"/>
      <rect x="191" y="113" width="22" height="22" rx="4"/>
      <rect x="217" y="113" width="22" height="22" rx="4"/>
      <rect x="295" y="113" width="22" height="22" rx="4"/>
      <rect x="321" y="113" width="22" height="22" rx="4"/>
      <rect x="347" y="113" width="22" height="22" rx="4"/>
      <rect x="373" y="113" width="22" height="22" rx="4"/>
      <rect x="399" y="113" width="22" height="22" rx="4"/>
      <rect x="425" y="113" width="22" height="22" rx="4"/>
      <rect x="451" y="113" width="22" height="22" rx="4"/>
      <rect x="477" y="113" width="22" height="22" rx="4"/>
      <rect x="9" y="139" width="22" height="22" rx="4"/>
      <rect x="35" y="139" width="22" height="22" rx="4"/>
      <rect x="61" y="139" width="22" height="22" rx="4"/>
      <rect x="87" y="139" width="22" height="22" rx="4"/>
      <rect x="113" y="139" width="22" height="22" rx="4"/>
      <rect x="139" y="139" width="22" height="22" rx="4"/>
      <rect x="165" y="139" width="22" height="22" rx="4"/>
      <rect x="191" y="139" width="22" height="22" rx="4"/>
      <rect x="295" y="139" width="22" height="22" rx="4"/>
      <rect x="321" y="139" width="22" height="22" rx="4"/>
      <rect x="347" y="139" width="22" height="22" rx="4"/>
      <rect x="373" y="139" width="22" height="22" rx="4"/>
      <rect x="399" y="139" width="22" height="22" rx="4"/>
      <rect x="425" y="139" width="22" height="22" rx="4"/>
      <rect x="451" y="139" width="22" height="22" rx="4"/>
      <rect x="477" y="139" width="22" height="22" rx="4"/>
      <rect x="9" y="165" width="22" height="22" rx="4"/>
      <rect x="35" y="165" width="22" height="22" rx="4"/>
      <rect x="61" y="165" width="22" height="22" rx="4"/>
      <rect x="87" y="165" width="22" height="22" rx="4"/>
      <rect x="113" y="165" width="22" height="22" rx="4"/>
      <rect x="139" y="165" width="22" height="22" rx="4"/>
      <rect x="165" y="165" width="22" height="22" rx="4"/>
      <rect x="191" y="165" width="22" height="22" rx="4"/>
      <rect x="295" y="165" width="22" height="22" rx="4"/>
      <rect x="321" y="165" width="22" height="22" rx="4"/>
      <rect x="347" y="165" width="22" height="22" rx="4"/>
      <rect x="373" y="165" width="22" height="22" rx="4"/>
      <rect x="399" y="165" width="22" height="22" rx="4"/>
      <rect x="425" y="165" width="22" height="22" rx="4"/>
      <rect x="451" y="165" width="22" height="22" rx="4"/>
      <rect x="477" y="165" width="22" height="22" rx="4"/>
      <rect x="9" y="191" width="22" height="22" rx="4"/>
      <rect x="35" y="191" width="22" height="22" rx="4"/>
      <rect x="61" y="191" width="22" height="22" rx="4"/>
      <rect x="425" y="191" width="22" height="22" rx="4"/>
      <rect x="451" y="191" width="22" height="22" rx="4"/>
      <rect x="477" y="191" width="22" height="22" rx="4"/>
      <rect x="9" y="217" width="22" height="22" rx="4"/>
      <rect x="35" y="217" width="22" height="22" rx="4"/>
      <rect x="61" y="217" width="22" height="22" rx="4"/>
      <rect x="87" y="217" width="22" height="22" rx="4"/>
      <rect x="399" y="217" width="22" height="22" rx="4"/>
      <rect x="425" y="217" width="22" height="22" rx="4"/>
      <rect x="451" y="217" width="22" height="22" rx="4"/>
      <rect x="477" y="217" width="22" height="22" rx="4"/>
      <rect x="9" y="243" width="22" height="22" rx="4"/>
      <rect x="35" y="243" width="22" height="22" rx="4"/>
      <rect x="61" y="243" width="22" height="22" rx="4"/>
      <rect x="87" y="243" width="22" height="22" rx="4"/>
      <rect x="113" y="243" width="22" height="22" rx="4"/>
      <rect x="373" y="243" width="22" height="22" rx="4"/>
      <rect x="399" y="243" width="22" height="22" rx="4"/>
      <rect x="425" y="243" width="22" height="22" rx="4"/>
      <rect x="451" y="243" width="22" height="22" rx="4"/>
      <rect x="477" y="243" width="22" height="22" rx="4"/>
      <rect x="9" y="269" width="22" height="22" rx="4"/>
      <rect x="35" y="269" width="22" height="22" rx="4"/>
      <rect x="61" y="269" width="22" height="22" rx="4"/>
      <rect x="87" y="269" width="22" height="22" rx="4"/>
      <rect x="113" y="269" width="22" height="22" rx="4"/>
      <rect x="139" y="269" width="22" height="22" rx="4"/>
      <rect x="347" y="269" width="22" height="22" rx="4"/>
      <rect x="373" y="269" width="22" height="22" rx="4"/>
      <rect x="399" y="269" width="22" height="22" rx="4"/>
      <rect x="425" y="269" width="22" height="22" rx="4"/>
      <rect x="451" y="269" width="22" height="22" rx="4"/>
      <rect x="477" y="269" width="22" height="22" rx="4"/>
      <rect x="9" y="295" width="22" height="22" rx="4"/>
      <rect x="35" y="295" width="22" height="22" rx="4"/>
      <rect x="61" y="295" width="22" height="22" rx="4"/>
      <rect x="87" y="295" width="22" height="22" rx="4"/>
      <rect x="113" y="295" width="22" height="22" rx="4"/>
      <rect x="139" y="295" width="22" height="22" rx="4"/>
      <rect x="347" y="295" width="22" height="22" rx="4"/>
      <rect x="373" y="295" width="22" height="22" rx="4"/>
      <rect x="399" y="295" width="22" height="22" rx="4"/>
      <rect x="425" y="295" width="22" height="22" rx="4"/>
      <rect x="451" y="295" width="22" height="22" rx="4"/>
      <rect x="477" y="295" width="22" height="22" rx="4"/>
      <rect x="9" y="321" width="22" height="22" rx="4"/>
      <rect x="35" y="321" width="22" height="22" rx="4"/>
      <rect x="61" y="321" width="22" height="22" rx="4"/>
      <rect x="87" y="321" width="22" height="22" rx="4"/>
      <rect x="113" y="321" width="22" height="22" rx="4"/>
      <rect x="139" y="321" width="22" height="22" rx="4"/>
      <rect x="347" y="321" width="22" height="22" rx="4"/>
      <rect x="373" y="321" width="22" height="22" rx="4"/>
      <rect x="399" y="321" width="22" height="22" rx="4"/>
      <rect x="425" y="321" width="22" height="22" rx="4"/>
      <rect x="451" y="321" width="22" height="22" rx="4"/>
      <rect x="477" y="321" width="22" height="22" rx="4"/>
      <rect x="9" y="347" width="22" height="22" rx="4"/>
      <rect x="35" y="347" width="22" height="22" rx="4"/>
      <rect x="61" y="347" width="22" height="22" rx="4"/>
      <rect x="87" y="347" width="22" height="22" rx="4"/>
      <rect x="113" y="347" width="22" height="22" rx="4"/>
      <rect x="139" y="347" width="22" height="22" rx="4"/>
      <rect x="243" y="347" width="22" height="22" rx="4"/>
      <rect x="347" y="347" width="22" height="22" rx="4"/>
      <rect x="373" y="347" width="22" height="22" rx="4"/>
      <rect x="399" y="347" width="22" height="22" rx="4"/>
      <rect x="425" y="347" width="22" height="22" rx="4"/>
      <rect x="451" y="347" width="22" height="22" rx="4"/>
      <rect x="477" y="347" width="22" height="22" rx="4"/>
      <rect x="9" y="373" width="22" height="22" rx="4"/>
      <rect x="35" y="373" width="22" height="22" rx="4"/>
      <rect x="61" y="373" width="22" height="22" rx="4"/>
      <rect x="87" y="373" width="22" height="22" rx="4"/>
      <rect x="113" y="373" width="22" height="22" rx="4"/>
      <rect x="191" y="373" width="22" height="22" rx="4"/>
      <rect x="217" y="373" width="22" height="22" rx="4"/>
      <rect x="243" y="373" width="22" height="22" rx="4"/>
      <rect x="269" y="373" width="22" height="22" rx="4"/>
      <rect x="295" y="373" width="22" height="22" rx="4"/>
      <rect x="373" y="373" width="22" height="22" rx="4"/>
      <rect x="399" y="373" width="22" height="22" rx="4"/>
      <rect x="425" y="373" width="22" height="22" rx="4"/>
      <rect x="451" y="373" width="22" height="22" rx="4"/>
      <rect x="477" y="373" width="22" height="22" rx="4"/>
      <rect x="9" y="399" width="22" height="22" rx="4"/>
      <rect x="35" y="399" width="22" height="22" rx="4"/>
      <rect x="61" y="399" width="22" height="22" rx="4"/>
      <rect x="87" y="399" width="22" height="22" rx="4"/>
      <rect x="113" y="399" width="22" height="22" rx="4"/>
      <rect x="139" y="399" width="22" height="22" rx="4"/>
      <rect x="165" y="399" width="22" height="22" rx="4"/>
      <rect x="191" y="399" width="22" height="22" rx="4"/>
      <rect x="217" y="399" width="22" height="22" rx="4"/>
      <rect x="243" y="399" width="22" height="22" rx="4"/>
      <rect x="269" y="399" width="22" height="22" rx="4"/>
      <rect x="295" y="399" width="22" height="22" rx="4"/>
      <rect x="321" y="399" width="22" height="22" rx="4"/>
      <rect x="347" y="399" width="22" height="22" rx="4"/>
      <rect x="373" y="399" width="22" height="22" rx="4"/>
      <rect x="399" y="399" width="22" height="22" rx="4"/>
      <rect x="425" y="399" width="22" height="22" rx="4"/>
      <rect x="451" y="399" width="22" height="22" rx="4"/>
      <rect x="477" y="399" width="22" height="22" rx="4"/>
      <rect x="9" y="425" width="22" height="22" rx="4"/>
      <rect x="35" y="425" width="22" height="22" rx="4"/>
      <rect x="61" y="425" width="22" height="22" rx="4"/>
      <rect x="87" y="425" width="22" height="22" rx="4"/>
      <rect x="113" y="425" width="22" height="22" rx="4"/>
      <rect x="139" y="425" width="22" height="22" rx="4"/>
      <rect x="165" y="425" width="22" height="22" rx="4"/>
      <rect x="191" y="425" width="22" height="22" rx="4"/>
      <rect x="217" y="425" width="22" height="22" rx="4"/>
      <rect x="243" y="425" width="22" height="22" rx="4"/>
      <rect x="269" y="425" width="22" height="22" rx="4"/>
      <rect x="295" y="425" width="22" height="22" rx="4"/>
      <rect x="321" y="425" width="22" height="22" rx="4"/>
      <rect x="347" y="425" width="22" height="22" rx="4"/>
      <rect x="373" y="425" width="22" height="22" rx="4"/>
      <rect x="399" y="425" width="22" height="22" rx="4"/>
      <rect x="425" y="425" width="22" height="22" rx="4"/>
      <rect x="451" y="425" width="22" height="22" rx="4"/>
      <rect x="477" y="425" width="22" height="22" rx="4"/>
      <rect x="9" y="451" width="22" height="22" rx="4"/>
      <rect x="35" y="451" width="22" height="22" rx="4"/>
      <rect x="61" y="451" width="22" height="22" rx="4"/>
      <rect x="87" y="451" width="22" height="22" rx="4"/>
      <rect x="113" y="451" width="22" height="22" rx="4"/>
      <rect x="139" y="451" width="22" height="22" rx="4"/>
      <rect x="165" y="451" width="22" height="22" rx="4"/>
      <rect x="191" y="451" width="22" height="22" rx="4"/>
      <rect x="217" y="451" width="22" height="22" rx="4"/>
      <rect x="243" y="451" width="22" height="22" rx="4"/>
      <rect x="269" y="451" width="22" height="22" rx="4"/>
      <rect x="295" y="451" width="22" height="22" rx="4"/>
      <rect x="321" y="451" width="22" height="22" rx="4"/>
      <rect x="347" y="451" width="22" height="22" rx="4"/>
      <rect x="373" y="451" width="22" height="22" rx="4"/>
      <rect x="399" y="451" width="22" height="22" rx="4"/>
      <rect x="425" y="451" width="22" height="22" rx="4"/>
      <rect x="451" y="451" width="22" height="22" rx="4"/>
      <rect x="477" y="451" width="22" height="22" rx="4"/>
      <rect x="9" y="477" width="22" height="22" rx="4"/>
      <rect x="35" y="477" width="22" height="22" rx="4"/>
      <rect x="61" y="477" width="22" height="22" rx="4"/>
      <rect x="87" y="477" width="22" height="22" rx="4"/>
      <rect x="113" y="477" width="22" height="22" rx="4"/>
      <rect x="139" y="477" width="22" height="22" rx="4"/>
      <rect x="165" y="477" width="22" height="22" rx="4"/>
      <rect x="191" y="477" width="22" height="22" rx="4"/>
      <rect x="217" y="477" width="22" height="22" rx="4"/>
      <rect x="243" y="477" width="22" height="22" rx="4"/>
      <rect x="269" y="477" width="22" height="22" rx="4"/>
      <rect x="295" y="477" width="22" height="22" rx="4"/>
      <rect x="321" y="477" width="22" height="22" rx="4"/>
      <rect x="347" y="477" width="22" height="22" rx="4"/>
      <rect x="373" y="477" width="22" height="22" rx="4"/>
      <rect x="399" y="477" width="22" height="22" rx="4"/>
      <rect x="425" y="477" width="22" height="22" rx="4"/>
      <rect x="451" y="477" width="22" height="22" rx="4"/>
      <rect x="477" y="477" width="22" height="22" rx="4"/>
    </g>
    <g>
      <rect x="243" y="61" width="22" height="22" rx="4" fill="#f1e05a"/>
      <rect x="243" y="87" width="22" height="22" rx="4" fill="#fced83"/>
      <rect x="243" y="113" width="22" height="22" rx="4" fill="#f1e05a"/>
      <rect x="269" y="113" width="22" height="22" rx="4" fill="#fced83"/>
      <rect x="217" y="139" width="22" height="22" rx="4" fill="#d29922"/>
      <rect x="243" y="139" width="22" height="22" rx="4" fill="#f1e05a"/>
      <rect x="269" y="139" width="22" height="22" rx="4" fill="#d29922"/>
      <rect x="217" y="165" width="22" height="22" rx="4" fill="#fced83"/>
      <rect x="243" y="165" width="22" height="22" rx="4" fill="#f1e05a"/>
      <rect x="269" y="165" width="22" height="22" rx="4" fill="#fced83"/>
      <rect x="87" y="191" width="22" height="22" rx="4" fill="#fced83"/>
      <rect x="113" y="191" width="22" height="22" rx="4" fill="#f1e05a"/>
      <rect x="139" y="191" width="22" height="22" rx="4" fill="#fced83"/>
      <rect x="165" y="191" width="22" height="22" rx="4" fill="#fced83"/>
      <rect x="191" y="191" width="22" height="22" rx="4" fill="#f1e05a"/>
      <rect x="217" y="191" width="22" height="22" rx="4" fill="#f1e05a"/>
      <rect x="243" y="191" width="22" height="22" rx="4" fill="#fced83"/>
      <rect x="269" y="191" width="22" height="22" rx="4" fill="#f1e05a"/>
      <rect x="295" y="191" width="22" height="22" rx="4" fill="#d29922"/>
      <rect x="321" y="191" width="22" height="22" rx="4" fill="#fced83"/>
      <rect x="347" y="191" width="22" height="22" rx="4" fill="#d29922"/>
      <rect x="373" y="191" width="22" height="22" rx="4" fill="#f1e05a"/>
      <rect x="399" y="191" width="22" height="22" rx="4" fill="#f1e05a"/>
      <rect x="113" y="217" width="22" height="22" rx="4" fill="#fced83"/>
      <rect x="139" y="217" width="22" height="22" rx="4" fill="#a6720d"/>
      <rect x="165" y="217" width="22" height="22" rx="4" fill="#f1e05a"/>
      <rect x="191" y="217" width="22" height="22" rx="4" fill="#fced83"/>
      <rect x="217" y="217" width="22" height="22" rx="4" fill="#fced83"/>
      <rect x="243" y="217" width="22" height="22" rx="4" fill="#d29922"/>
      <rect x="269" y="217" width="22" height="22" rx="4" fill="#f1e05a"/>
      <rect x="295" y="217" width="22" height="22" rx="4" fill="#d29922"/>
      <rect x="321" y="217" width="22" height="22" rx="4" fill="#d29922"/>
      <rect x="347" y="217" width="22" height="22" rx="4" fill="#f1e05a"/>
      <rect x="373" y="217" width="22" height="22" rx="4" fill="#a6720d"/>
      <rect x="139" y="243" width="22" height="22" rx="4" fill="#f1e05a"/>
      <rect x="165" y="243" width="22" height="22" rx="4" fill="#f1e05a"/>
      <rect x="191" y="243" width="22" height="22" rx="4" fill="#d29922"/>
      <rect x="217" y="243" width="22" height="22" rx="4" fill="#f1e05a"/>
      <rect x="243" y="243" width="22" height="22" rx="4" fill="#d29922"/>
      <rect x="269" y="243" width="22" height="22" rx="4" fill="#f1e05a"/>
      <rect x="295" y="243" width="22" height="22" rx="4" fill="#d29922"/>
      <rect x="321" y="243" width="22" height="22" rx="4" fill="#fced83"/>
      <rect x="347" y="243" width="22" height="22" rx="4" fill="#fced83"/>
      <rect x="165" y="269" width="22" height="22" rx="4" fill="#f1e05a"/>
      <rect x="191" y="269" width="22" height="22" rx="4" fill="#fced83"/>
      <rect x="217" y="269" width="22" height="22" rx="4" fill="#fced83"/>
      <rect x="243" y="269" width="22" height="22" rx="4" fill="#fced83"/>
      <rect x="269" y="269" width="22" height="22" rx="4" fill="#f1e05a"/>
      <rect x="295" y="269" width="22" height="22" rx="4" fill="#f1e05a"/>
      <rect x="321" y="269" width="22" height="22" rx="4" fill="#f1e05a"/>
      <rect x="165" y="295" width="22" height="22" rx="4" fill="#f1e05a"/>
      <rect x="191" y="295" width="22" height="22" rx="4" fill="#fced83"/>
      <rect x="217" y="295" width="22" height="22" rx="4" fill="#f1e05a"/>
      <rect x="243" y="295" width="22" height="22" rx="4" fill="#a6720d"/>
      <rect x="269" y="295" width="22" height="22" rx="4" fill="#f1e05a"/>
      <rect x="295" y="295" width="22" height="22" rx="4" fill="#f1e05a"/>
      <rect x="321" y="295" width="22" height="22" rx="4" fill="#fced83"/>
      <rect x="165" y="321" width="22" height="22" rx="4" fill="#d29922"/>
      <rect x="191" y="321" width="22" height="22" rx="4" fill="#fced83"/>
      <rect x="217" y="321" width="22" height="22" rx="4" fill="#f1e05a"/>
      <rect x="243" y="321" width="22" height="22" rx="4" fill="#a6720d"/>
      <rect x="269" y="321" width="22" height="22" rx="4" fill="#f1e05a"/>
      <rect x="295" y="321" width="22" height="22" rx="4" fill="#f1e05a"/>
      <rect x="321" y="321" width="22" height="22" rx="4" fill="#f1e05a"/>
      <rect x="165" y="347" width="22" height="22" rx="4" fill="#d29922"/>
      <rect x="191" y="347" width="22" height="22" rx="4" fill="#d29922"/>
      <rect x="217" y="347" width="22" height="22" rx="4" fill="#fced83"/>
      <rect x="269" y="347" width="22" height="22" rx="4" fill="#fced83"/>
      <rect x="295" y="347" width="22" height="22" rx="4" fill="#f1e05a"/>
      <rect x="321" y="347" width="22" height="22" rx="4" fill="#f1e05a"/>
      <rect x="139" y="373" width="22" height="22" rx="4" fill="#fced83"/>
      <rect x="165" y="373" width="22" height="22" rx="4" fill="#a6720d"/>
      <rect x="321" y="373" width="22" height="22" rx="4" fill="#d29922"/>
      <rect x="347" y="373" width="22" height="22" rx="4" fill="#f1e05a"/>
    </g>
  </g>
  <rect width="508" height="508" x="2" y="2" rx="115" ry="115" fill="none" stroke="#e1e4e8" stroke-width="4"/>
</svg>